<!-- Investigative Idiot – minimal app icon (hat + magnifier + newspaper) -->
<svg xmlns="http://www.w3.org/2000/svg" viewBox="0 0 256 256" role="img" aria-label="Investigative Idiot logo">
  <defs>
    <!-- Soft sci-fi gradient -->
    <linearGradient id="bg" x1="0" y1="0" x2="1" y2="1">
      <stop offset="0" stop-color="#5f8cff"/>
      <stop offset="1" stop-color="#8a7dff"/>
    </linearGradient>
    <!-- Subtle shadow glow -->
    <filter id="soft" x="-20%" y="-20%" width="140%" height="140%">
      <feDropShadow dx="0" dy="8" stdDeviation="10" flood-opacity=".18"/>
    </filter>
  </defs>

  <!-- Rounded square app tile -->
  <rect x="12" y="12" width="232" height="232" rx="44" fill="url(#bg)"/>

  <!-- Group all glyphs in white -->
  <g fill="none" stroke="#fff" stroke-linecap="round" stroke-linejoin="round" filter="url(#soft)">
    <!-- Detective hat (minimal) -->
    <!-- Crown -->
    <path d="M86 98c7-16 21-26 42-26s35 10 42 26" stroke-width="10"/>
    <!-- Brim -->
    <path d="M60 118c20-10 48-14 82-14s62 4 82 14" stroke-width="12"/>

    <!-- Magnifying glass overlapping the brim -->
    <circle cx="164" cy="148" r="22" stroke-width="10"/>
    <path d="M180 164l22 22" stroke-width="10"/>

    <!-- Newspaper card (simple rectangle with two lines) -->
    <rect x="62" y="144" width="56" height="40" rx="8" stroke-width="10"/>
    <path d="M72 156h36M72 172h28" stroke-width="10"/>

    <!-- Gentle smile arc = open, curious tone -->
    <path d="M84 204c24 10 64 10 88 0" stroke-width="10"/>
  </g>
</svg>
